<svg id="Layer_1" data-name="Layer 1" xmlns="http://www.w3.org/2000/svg" viewBox="0 0 165.83 47"><defs><style>.cls-1{fill:#434143;}.cls-2{fill:#f1674a;}</style></defs><title>Artboard 15</title><path class="cls-1" d="M61.77,32a8.84,8.84,0,0,0,2.14-.22,3.94,3.94,0,0,0,1.36-.59,2,2,0,0,0,.71-.89,3.16,3.16,0,0,0,.2-1.14A2.64,2.64,0,0,0,64.91,27,18,18,0,0,0,60.59,25q-1.34-.47-2.67-1.08a9.84,9.84,0,0,1-2.4-1.53,7.33,7.33,0,0,1-1.73-2.24A7,7,0,0,1,53.11,17a7.94,7.94,0,0,1,.71-3.4,7.27,7.27,0,0,1,2-2.58A9.17,9.17,0,0,1,59,9.37a14.13,14.13,0,0,1,4.17-.57,16.67,16.67,0,0,1,8.06,1.89l-1.77,4.84a16.86,16.86,0,0,0-2.54-1A11,11,0,0,0,63.54,14a6.17,6.17,0,0,0-3.17.61,2.06,2.06,0,0,0-1,1.87,2.16,2.16,0,0,0,.35,1.26,3.43,3.43,0,0,0,1,.92,8.77,8.77,0,0,0,1.49.75q.85.33,1.87.69,2.12.79,3.7,1.55a9.88,9.88,0,0,1,2.62,1.79A6.49,6.49,0,0,1,72,25.87a9.66,9.66,0,0,1,.51,3.34,7.1,7.1,0,0,1-2.67,5.92q-2.67,2.1-8.06,2.1A22.41,22.41,0,0,1,58.5,37a21.07,21.07,0,0,1-2.58-.53A14.72,14.72,0,0,1,54,35.82a14.41,14.41,0,0,1-1.36-.67l1.73-4.88a15.39,15.39,0,0,0,3,1.2,15.61,15.61,0,0,0,4.39.53Z"/><path class="cls-1" d="M93.56,16q-1.77,6-3.71,11.21T85.64,37.35a23,23,0,0,1-1.65,3,9.29,9.29,0,0,1-1.81,2,6.39,6.39,0,0,1-2.23,1.18A10.08,10.08,0,0,1,77,44a11.84,11.84,0,0,1-2.54-.26,11.34,11.34,0,0,1-1.91-.57l1-4.68a10,10,0,0,0,1.61.43,9.11,9.11,0,0,0,1.5.12,3.28,3.28,0,0,0,2.42-.85,6.81,6.81,0,0,0,1.44-2.34q-2-3.93-4-8.83a110,110,0,0,1-3.78-11H79q.39,1.53.93,3.32t1.13,3.62q.59,1.83,1.2,3.56t1.17,3.15q.51-1.42,1.07-3.15t1.09-3.56q.53-1.83,1-3.62T87.5,16Z"/><path class="cls-1" d="M101.62,32.48a5.84,5.84,0,0,0,2.28-.31,1.21,1.21,0,0,0,.67-1.22,1.49,1.49,0,0,0-.87-1.24,16.49,16.49,0,0,0-2.64-1.2,26.67,26.67,0,0,1-2.5-1.06,7.33,7.33,0,0,1-1.91-1.32,5.32,5.32,0,0,1-1.22-1.83A6.76,6.76,0,0,1,95,21.74a5.53,5.53,0,0,1,2.16-4.6,9.41,9.41,0,0,1,5.94-1.69,19.1,19.1,0,0,1,3.62.33,16.94,16.94,0,0,1,2.75.73l-1,4.56a21.61,21.61,0,0,0-2.22-.63,12.12,12.12,0,0,0-2.69-.28q-2.75,0-2.75,1.53a1.59,1.59,0,0,0,.12.63,1.34,1.34,0,0,0,.47.53,6.6,6.6,0,0,0,1,.55q.61.3,1.55.65a24.06,24.06,0,0,1,3.19,1.41,7.62,7.62,0,0,1,2,1.5,4.63,4.63,0,0,1,1,1.79,7.93,7.93,0,0,1,.3,2.28,5.24,5.24,0,0,1-2.3,4.63,11.48,11.48,0,0,1-6.51,1.57A18.7,18.7,0,0,1,97,36.76,18.51,18.51,0,0,1,94.46,36l1-4.76a19.16,19.16,0,0,0,3.07.92,14.9,14.9,0,0,0,3.11.33Z"/><path class="cls-1" d="M118.76,26.18A7.18,7.18,0,0,0,120,30.55a4.21,4.21,0,0,0,3.62,1.65q.79,0,1.45-.06t1.1-.14V21.35a5.1,5.1,0,0,0-1.44-.59,6.92,6.92,0,0,0-1.79-.24q-4.17,0-4.17,5.66ZM132,36q-.79.24-1.81.45t-2.14.37q-1.12.16-2.28.26t-2.22.1a13,13,0,0,1-4.56-.75,9.15,9.15,0,0,1-3.38-2.14,9.29,9.29,0,0,1-2.1-3.38,12.9,12.9,0,0,1-.73-4.46,15.29,15.29,0,0,1,.63-4.54,9.88,9.88,0,0,1,1.81-3.44,7.74,7.74,0,0,1,2.89-2.16,9.69,9.69,0,0,1,3.91-.75,9.22,9.22,0,0,1,2.18.24,11.85,11.85,0,0,1,1.95.67V7.11L132,6.16V36Z"/><path class="cls-1" d="M142.53,36.68h-5.86V16h5.86V36.68ZM143.08,10a3.22,3.22,0,0,1-1,2.54,3.73,3.73,0,0,1-4.92,0,3.21,3.21,0,0,1-1-2.54,3.22,3.22,0,0,1,1-2.54,3.73,3.73,0,0,1,4.92,0,3.22,3.22,0,0,1,1,2.54Z"/><path class="cls-1" d="M152,25.67q0,4.92,4,4.92a5.87,5.87,0,0,0,1.69-.24A6.43,6.43,0,0,0,159,29.8V20.44q-.43-.08-1-.14t-1.38-.06a4,4,0,0,0-3.46,1.53A6.34,6.34,0,0,0,152,25.67Zm12.86,8.42q0,5.07-2.58,7.53t-8,2.46a21.64,21.64,0,0,1-3.78-.33,23.54,23.54,0,0,1-3.5-.88l1-4.92a17.22,17.22,0,0,0,2.89.87,17,17,0,0,0,3.44.31,4.76,4.76,0,0,0,3.56-1.1,4,4,0,0,0,1-2.83v-.75a9.38,9.38,0,0,1-1.95.65,10.35,10.35,0,0,1-2.18.22,8.38,8.38,0,0,1-6.57-2.54,10.24,10.24,0,0,1-2.28-7.1,11.62,11.62,0,0,1,.71-4.15,8.83,8.83,0,0,1,2.06-3.21,9.22,9.22,0,0,1,3.32-2.06,12.75,12.75,0,0,1,4.44-.73q1.06,0,2.18.1t2.22.26q1.1.16,2.1.37t1.79.45V34.09Z"/><path class="cls-2" d="M23.86.33A23.16,23.16,0,0,0,5.3,37.61L7.45,35.5a4,4,0,0,1,2.23-.59l3.22-3.17c1.63-1.61-1.13-4.42-1.13-4.42L7.91,23.39C23,8.52,34.06,13.13,34.06,13.13s4.42,11.11-10.69,26l-3.87-3.93s-2.77-2.81-4.4-1.21l-3.22,3.17a4,4,0,0,1-.62,2.22L9.09,41.5A23.17,23.17,0,1,0,23.86.33Z"/></svg>