<svg id="Layer_1" data-name="Layer 1" xmlns="http://www.w3.org/2000/svg" viewBox="0 0 167.99 30.34"><defs><style>.cls-1{fill:#fff;}</style></defs><title>Artboard 1 copy 3</title><path class="cls-1" d="M15.14.77A14.43,14.43,0,0,0,3.58,24l1.34-1.32a2.5,2.5,0,0,1,1.39-.37l2-2c1-1-.71-2.75-.71-2.75L5.2,15.13c9.41-9.26,16.29-6.39,16.29-6.39s2.75,6.92-6.66,16.18l-2.41-2.45s-1.72-1.75-2.74-.75l-2,2a2.49,2.49,0,0,1-.39,1.38L5.94,26.41A14.43,14.43,0,1,0,15.14.77Z"/><path class="cls-1" d="M38.49,20.46a5.51,5.51,0,0,0,1.34-.13,2.45,2.45,0,0,0,.85-.37,1.23,1.23,0,0,0,.44-.55,2,2,0,0,0,.12-.71,1.64,1.64,0,0,0-.78-1.38,11.2,11.2,0,0,0-2.69-1.19q-.83-.29-1.67-.67a6.13,6.13,0,0,1-1.49-1,4.56,4.56,0,0,1-1.08-1.4,4.37,4.37,0,0,1-.42-2A4.94,4.94,0,0,1,33.55,9a4.53,4.53,0,0,1,1.25-1.6,5.72,5.72,0,0,1,2-1A8.8,8.8,0,0,1,39.35,6a10.38,10.38,0,0,1,5,1.18l-1.1,3a10.44,10.44,0,0,0-1.58-.65,6.85,6.85,0,0,0-2.09-.28,3.84,3.84,0,0,0-2,.38A1.28,1.28,0,0,0,37,10.8a1.34,1.34,0,0,0,.22.78,2.14,2.14,0,0,0,.62.58,5.46,5.46,0,0,0,.93.47l1.16.43q1.32.49,2.3,1a6.16,6.16,0,0,1,1.63,1.11,4,4,0,0,1,1,1.49,6,6,0,0,1,.32,2.08,4.42,4.42,0,0,1-1.67,3.69,8,8,0,0,1-5,1.31,13.92,13.92,0,0,1-2-.13,13.16,13.16,0,0,1-1.6-.33,9.21,9.21,0,0,1-1.2-.42,9,9,0,0,1-.85-.42l1.08-3a9.57,9.57,0,0,0,1.87.75,9.72,9.72,0,0,0,2.73.33Z"/><path class="cls-1" d="M58.43,10.49q-1.1,3.72-2.31,7t-2.63,6.32a14.36,14.36,0,0,1-1,1.87,5.78,5.78,0,0,1-1.13,1.27,4,4,0,0,1-1.39.73,6.28,6.28,0,0,1-1.8.23,7.38,7.38,0,0,1-1.58-.16,7.08,7.08,0,0,1-1.19-.36L46,24.47a6.25,6.25,0,0,0,1,.27,5.66,5.66,0,0,0,.93.07,2,2,0,0,0,1.51-.53,4.23,4.23,0,0,0,.89-1.46q-1.25-2.45-2.5-5.5a68.57,68.57,0,0,1-2.35-6.85h3.87q.25,1,.58,2.07t.7,2.25Q51,15.95,51.4,17t.73,2q.32-.88.66-2t.68-2.22q.33-1.14.64-2.25t.55-2.07Z"/><path class="cls-1" d="M63.57,20.75a3.64,3.64,0,0,0,1.42-.2.76.76,0,0,0,.42-.76.93.93,0,0,0-.54-.77,10.28,10.28,0,0,0-1.64-.75,16.55,16.55,0,0,1-1.56-.66,4.58,4.58,0,0,1-1.19-.82,3.31,3.31,0,0,1-.76-1.14,4.2,4.2,0,0,1-.27-1.59A3.44,3.44,0,0,1,60.8,11.2a5.86,5.86,0,0,1,3.7-1.05,11.89,11.89,0,0,1,2.25.21,10.54,10.54,0,0,1,1.72.45l-.64,2.84a13.56,13.56,0,0,0-1.38-.39,7.53,7.53,0,0,0-1.68-.17q-1.71,0-1.71,1a1,1,0,0,0,.07.39.83.83,0,0,0,.29.33,4.12,4.12,0,0,0,.6.34q.38.19,1,.41a15,15,0,0,1,2,.88,4.75,4.75,0,0,1,1.24.93,2.89,2.89,0,0,1,.64,1.11A4.93,4.93,0,0,1,69,19.85a3.27,3.27,0,0,1-1.43,2.88,7.15,7.15,0,0,1-4.06,1,11.65,11.65,0,0,1-2.85-.29,11.5,11.5,0,0,1-1.58-.49l.61-3a12,12,0,0,0,1.91.58,9.29,9.29,0,0,0,1.94.21Z"/><path class="cls-1" d="M74.36,16.83a4.47,4.47,0,0,0,.76,2.72,2.62,2.62,0,0,0,2.25,1q.49,0,.91,0t.69-.09V13.82a3.17,3.17,0,0,0-.89-.37A4.31,4.31,0,0,0,77,13.3q-2.6,0-2.6,3.53ZM82.62,23q-.49.15-1.13.28t-1.34.23q-.7.1-1.42.16t-1.38.06a8.1,8.1,0,0,1-2.84-.47,5.71,5.71,0,0,1-2.11-1.33,5.79,5.79,0,0,1-1.31-2.11A8,8,0,0,1,70.64,17,9.53,9.53,0,0,1,71,14.17,6.16,6.16,0,0,1,72.16,12,4.83,4.83,0,0,1,74,10.68a6,6,0,0,1,2.44-.47,5.74,5.74,0,0,1,1.36.15,7.38,7.38,0,0,1,1.21.42V4.95l3.65-.59V23Z"/><path class="cls-1" d="M89.28,23.37H85.63V10.49h3.65V23.37Zm.34-16.61A2,2,0,0,1,89,8.34a2.32,2.32,0,0,1-3.06,0,2,2,0,0,1-.65-1.58,2,2,0,0,1,.65-1.58,2.32,2.32,0,0,1,3.06,0,2,2,0,0,1,.65,1.58Z"/><path class="cls-1" d="M95.28,16.51q0,3.06,2.47,3.06a3.65,3.65,0,0,0,1.05-.15,4,4,0,0,0,.83-.34V13.25L99,13.17q-.37,0-.86,0a2.51,2.51,0,0,0-2.16,1,4,4,0,0,0-.71,2.43Zm8,5.24a6.21,6.21,0,0,1-1.6,4.69,7,7,0,0,1-5,1.53,13.49,13.49,0,0,1-2.35-.21,14.63,14.63,0,0,1-2.18-.55l.64-3.06a10.75,10.75,0,0,0,1.8.54,10.61,10.61,0,0,0,2.14.2A3,3,0,0,0,99,24.2a2.46,2.46,0,0,0,.65-1.76V22a5.85,5.85,0,0,1-1.21.4,6.45,6.45,0,0,1-1.36.13A5.22,5.22,0,0,1,93,20.93a6.38,6.38,0,0,1-1.42-4.42A7.24,7.24,0,0,1,92,13.93a5.5,5.5,0,0,1,1.29-2,5.75,5.75,0,0,1,2.07-1.29,7.94,7.94,0,0,1,2.77-.45q.66,0,1.36.06t1.38.16q.69.1,1.31.23t1.11.28V21.75Z"/><polygon class="cls-1" points="113.21 23.37 113.21 7.03 123.58 7.03 123.58 8.3 114.61 8.3 114.61 14.36 123.4 14.36 123.4 15.63 114.61 15.63 114.61 23.37 113.21 23.37 113.21 23.37"/><path class="cls-1" d="M134,21v-2.6a4.37,4.37,0,0,0-3.58-1.64,2.94,2.94,0,1,0,0,5.86A4.42,4.42,0,0,0,134,21Zm0,2.33V22a5.15,5.15,0,0,1-4,1.69,4,4,0,0,1-4.14-3.94,3.91,3.91,0,0,1,4.14-3.92,5.12,5.12,0,0,1,4,1.69v-2.4c0-1.76-1.42-2.72-3.16-2.72a4.62,4.62,0,0,0-3.72,1.74l-.71-.88a5.75,5.75,0,0,1,4.56-2c2.4,0,4.31,1.15,4.31,3.8v8.33Z"/><polygon class="cls-1" points="139.2 23.37 139.2 7.03 140.48 7.03 140.48 23.37 139.2 23.37 139.2 23.37"/><path class="cls-1" d="M143.79,17.44c0-3.45,2.25-6.2,5.73-6.2a4.88,4.88,0,0,1,4.19,2l-.88.78a3.74,3.74,0,0,0-3.23-1.64c-2.77,0-4.46,2.2-4.46,5s1.69,5.07,4.46,5.07a3.77,3.77,0,0,0,3.23-1.67l.88.78a4.84,4.84,0,0,1-4.19,2c-3.48,0-5.73-2.77-5.73-6.22Z"/><path class="cls-1" d="M165.88,17.44c0-2.62-1.54-5-4.34-5s-4.31,2.43-4.31,5,1.57,5.07,4.31,5.07,4.34-2.43,4.34-5.07Zm-10,0c0-3.45,2.21-6.2,5.66-6.2s5.71,2.74,5.71,6.2-2.2,6.22-5.71,6.22-5.66-2.77-5.66-6.22Z"/></svg>