<?xml version="1.0" encoding="utf-8"?>
<!-- Generator: Adobe Illustrator 21.1.0, SVG Export Plug-In . SVG Version: 6.00 Build 0)  -->
<svg version="1.1" id="Layer_1" xmlns="http://www.w3.org/2000/svg" xmlns:xlink="http://www.w3.org/1999/xlink" x="0px" y="0px"
	 viewBox="0 0 246 40" style="enable-background:new 0 0 246 40;" xml:space="preserve">
<style type="text/css">
	.st0{fill:#FFFFFF;}
</style>
<title>Sysdig secure</title>
<path class="st0" d="M9.7,26.9c0.7,0,1.4-0.1,2.2-0.2c0.5-0.1,0.9-0.3,1.4-0.6c0.3-0.2,0.6-0.5,0.7-0.9c0.1-0.4,0.2-0.8,0.2-1.1
	c0-0.9-0.5-1.8-1.3-2.2c-1.4-0.8-2.8-1.5-4.3-1.9c-0.9-0.3-1.8-0.7-2.7-1.1c-0.9-0.4-1.7-0.9-2.4-1.5c-0.7-0.6-1.3-1.4-1.7-2.2
	C1.2,14.1,1,13,1,11.8c0-1.2,0.2-2.3,0.7-3.4c0.5-1,1.1-1.9,2-2.6c0.9-0.8,2-1.3,3.2-1.6c1.4-0.4,2.8-0.6,4.2-0.6
	c2.8-0.1,5.6,0.6,8.1,1.9l-1.8,4.8c-0.8-0.4-1.7-0.7-2.5-1c-1.1-0.3-2.2-0.5-3.4-0.4c-1.1-0.1-2.2,0.1-3.2,0.6c-0.7,0.4-1,1.1-1,1.9
	c0,0.4,0.1,0.9,0.4,1.3c0.3,0.4,0.6,0.7,1,0.9c0.5,0.3,1,0.5,1.5,0.8c0.6,0.2,1.2,0.5,1.9,0.7c1.4,0.5,2.7,1,3.7,1.6
	c1,0.5,1.8,1.1,2.6,1.8c0.7,0.7,1.3,1.5,1.6,2.4c0.4,1.1,0.5,2.2,0.5,3.4c0.1,2.3-0.9,4.5-2.7,5.9c-1.8,1.4-4.5,2.1-8.1,2.1
	c-1.1,0-2.2-0.1-3.3-0.2c-0.9-0.1-1.7-0.3-2.6-0.5c-0.7-0.2-1.3-0.4-1.9-0.7C1.5,30.5,1,30.3,0.6,30l1.7-4.9c1,0.5,2,0.9,3,1.2
	C6.7,26.7,8.2,26.9,9.7,26.9z"/>
<path class="st0" d="M41.8,10.9c-1.2,4-2.4,7.7-3.7,11.2s-2.7,6.9-4.2,10.2c-0.5,1-1,2-1.7,3c-0.5,0.8-1.1,1.4-1.8,2
	c-0.7,0.5-1.4,0.9-2.2,1.2c-0.9,0.3-1.9,0.4-2.9,0.4c-0.9,0-1.7-0.1-2.5-0.3c-0.7-0.1-1.3-0.3-1.9-0.6l1-4.7
	c0.5,0.2,1.1,0.3,1.6,0.4c0.5,0.1,1,0.1,1.5,0.1c0.9,0.1,1.8-0.2,2.4-0.8c0.6-0.7,1.1-1.5,1.4-2.4c-1.3-2.6-2.7-5.6-4-8.9
	c-1.5-3.6-2.7-7.3-3.8-11h6.2c0.3,1,0.6,2.1,0.9,3.3s0.7,2.4,1.1,3.6c0.4,1.2,0.8,2.4,1.2,3.6c0.4,1.2,0.8,2.2,1.2,3.1
	c0.3-0.9,0.7-2,1.1-3.1c0.4-1.2,0.7-2.3,1.1-3.6c0.4-1.2,0.7-2.4,1-3.6s0.6-2.3,0.9-3.3L41.8,10.9z"/>
<path class="st0" d="M50.1,27.4c0.8,0,1.6-0.1,2.3-0.3c0.4-0.2,0.7-0.7,0.6-1.2c0-0.5-0.4-1-0.9-1.2c-0.8-0.5-1.7-0.9-2.6-1.2
	c-0.8-0.3-1.7-0.7-2.5-1.1c-0.7-0.3-1.3-0.8-1.9-1.3c-0.5-0.5-0.9-1.1-1.2-1.8c-0.3-0.8-0.5-1.7-0.4-2.6c-0.1-1.8,0.7-3.5,2.2-4.6
	c1.8-1.2,3.9-1.8,6-1.7c1.2,0,2.4,0.1,3.6,0.3c0.9,0.2,1.9,0.4,2.8,0.7l-1,4.6c-0.7-0.2-1.5-0.5-2.2-0.6C53.9,15.1,52.9,15,52,15
	c-1.8,0-2.8,0.5-2.8,1.5c0,0.2,0,0.4,0.1,0.6c0.1,0.2,0.3,0.4,0.5,0.5c0.3,0.2,0.7,0.4,1,0.5c0.4,0.2,0.9,0.4,1.6,0.7
	c1.1,0.4,2.2,0.9,3.2,1.4c0.7,0.4,1.4,0.9,2,1.5c0.5,0.5,0.8,1.1,1,1.8c0.2,0.7,0.3,1.5,0.3,2.3c0.1,1.8-0.8,3.6-2.3,4.6
	c-2,1.2-4.3,1.7-6.6,1.6c-1.5,0-3.1-0.1-4.6-0.5c-0.9-0.2-1.7-0.5-2.5-0.8l1-4.8c1,0.4,2,0.7,3.1,0.9C48,27.3,49,27.4,50.1,27.4z"/>
<path class="st0" d="M80.7,30.9c-0.5,0.2-1.1,0.3-1.8,0.5c-0.7,0.1-1.4,0.3-2.2,0.4c-0.7,0.1-1.5,0.2-2.3,0.3s-1.5,0.1-2.2,0.1
	c-1.6,0-3.1-0.2-4.6-0.8c-1.3-0.5-2.4-1.2-3.4-2.1c-0.9-1-1.7-2.1-2.1-3.4c-0.5-1.4-0.8-2.9-0.7-4.5c0-1.5,0.2-3.1,0.6-4.5
	c0.4-1.3,1-2.4,1.8-3.4c0.8-0.9,1.8-1.7,2.9-2.2c1.2-0.5,2.6-0.8,3.9-0.8c0.7,0,1.5,0.1,2.2,0.2c0.7,0.2,1.4,0.4,2,0.7V2l5.8-1V30.9
	z M67.4,21.1c-0.1,1.6,0.4,3.1,1.2,4.4c0.9,1.1,2.2,1.8,3.6,1.7c0.5,0,1,0,1.5-0.1c0.4,0,0.8-0.1,1.1-0.1V16.2
	c-0.4-0.3-0.9-0.5-1.4-0.6c-0.6-0.2-1.2-0.2-1.8-0.2C68.8,15.4,67.4,17.3,67.4,21.1z"/>
<path class="st0" d="M92,4.9c0.1,1-0.3,1.9-1,2.5c-1.4,1.2-3.5,1.2-4.9,0c-0.7-0.7-1.1-1.6-1-2.5c-0.1-1,0.3-1.9,1-2.5
	c1.4-1.2,3.5-1.2,4.9,0C91.7,3,92.1,3.9,92,4.9z M91.4,31.6h-5.9V10.9h5.9L91.4,31.6z"/>
<path class="st0" d="M114,29c0,3.4-0.9,5.9-2.6,7.5c-1.7,1.6-4.4,2.5-8,2.5c-1.3,0-2.5-0.1-3.8-0.3c-1.2-0.2-2.4-0.5-3.5-0.9l1-4.9
	c0.9,0.4,1.9,0.7,2.9,0.9c1.1,0.2,2.3,0.3,3.4,0.3c1.3,0.1,2.6-0.3,3.6-1.1c0.7-0.8,1-1.8,1-2.8v-0.8c-0.6,0.3-1.3,0.5-2,0.6
	c-0.7,0.2-1.5,0.2-2.2,0.2c-2.5,0.2-4.9-0.8-6.6-2.5c-1.6-2-2.4-4.5-2.3-7.1c0-1.4,0.2-2.8,0.7-4.2c0.4-1.2,1.2-2.3,2.1-3.2
	c0.9-0.9,2.1-1.6,3.3-2.1c1.4-0.5,2.9-0.8,4.4-0.7c0.7,0,1.4,0,2.2,0.1s1.5,0.2,2.2,0.3c0.7,0.1,1.4,0.2,2.1,0.4
	c0.7,0.1,1.3,0.3,1.8,0.4L114,29z M101.1,20.6c0,3.3,1.3,4.9,4,4.9c0.6,0,1.1-0.1,1.7-0.2c0.5-0.1,0.9-0.3,1.3-0.5v-9.4
	c-0.3-0.1-0.6-0.1-1-0.1s-0.8-0.1-1.4-0.1c-1.3-0.1-2.6,0.5-3.5,1.5C101.5,17.8,101,19.2,101.1,20.6L101.1,20.6z"/>
<path class="st0" d="M128.5,27.9l1.5-1.7c2.1,2.4,5.1,3.8,8.2,3.8c5.4,0,6.9-3,6.9-5.2c0-7.7-15.8-3.7-15.8-12.9c0-4.3,3.9-7,8.6-7
	c3.4-0.2,6.6,1.2,8.9,3.7l-1.5,1.7c-1.9-2.2-4.6-3.4-7.5-3.3c-3.5,0-6.1,2-6.1,4.8c0,6.7,15.8,3,15.8,12.9c0,3.4-2.2,7.5-9.3,7.5
	C134.4,32.2,130.9,30.7,128.5,27.9z"/>
<path class="st0" d="M151.7,22c0-5.5,3.9-10,9.1-10c5.8,0,9,4.6,9,10.1v0.5h-15.9c0.2,4.1,3,7.6,7.4,7.6c2.4,0,4.6-0.9,6.2-2.6
	l1.1,1.4c-1.9,2-4.6,3.2-7.4,3.1C155.6,32.1,151.7,27.9,151.7,22z M160.8,13.8c-4.5,0-6.7,3.9-6.9,7.2h13.8
	C167.7,17.9,165.6,13.9,160.8,13.8L160.8,13.8z"/>
<path class="st0" d="M174,22c0-5.6,3.6-10,9.2-10c2.7-0.1,5.2,1.1,6.8,3.3l-1.4,1.3c-1.2-1.7-3.1-2.7-5.2-2.6
	c-4.4,0-7.2,3.6-7.2,8.1s2.7,8.2,7.2,8.2c2.1,0.1,4-1,5.2-2.7l1.4,1.3c-1.5,2.2-4.1,3.4-6.7,3.3C177.7,32.1,174,27.6,174,22z"/>
<path class="st0" d="M207.4,31.6v-2.8c-1.7,2-4.2,3.2-6.9,3.3c-3.9,0-6-1.8-6-6.1V12.6h2v12.9c0,3.7,1.9,4.7,4.6,4.7
	c2.4-0.1,4.7-1.2,6.2-3.1V12.6h2v19L207.4,31.6z"/>
<path class="st0" d="M215.9,31.6v-19h2v3.3c1.6-2.1,3.8-3.7,6.4-3.7v2.2c-0.3-0.1-0.7-0.1-1-0.1c-2.2,0.2-4.2,1.5-5.4,3.4v13.9
	H215.9z"/>
<path class="st0" d="M227.3,22c0-5.5,3.9-10,9.1-10c5.8,0,9,4.6,9,10.1v0.5h-15.9c0.2,4.1,3,7.6,7.4,7.6c2.4,0,4.6-0.9,6.2-2.6
	l1.1,1.4c-1.9,2-4.6,3.2-7.4,3.1C231.2,32.1,227.3,27.9,227.3,22z M236.4,13.8c-4.5,0-6.7,3.9-6.9,7.2h13.8
	C243.3,17.9,241.2,13.9,236.4,13.8L236.4,13.8z"/>
</svg>
