<svg id="Layer_1" data-name="Layer 1" xmlns="http://www.w3.org/2000/svg" viewBox="0 0 135.51 30.34"><defs><style>.cls-1{fill:#fff;}</style></defs><title>Artboard 1 copy 4</title><path class="cls-1" d="M6,20.46a5.51,5.51,0,0,0,1.34-.13A2.45,2.45,0,0,0,8.19,20a1.23,1.23,0,0,0,.44-.55,2,2,0,0,0,.12-.71A1.64,1.64,0,0,0,8,17.31a11.2,11.2,0,0,0-2.69-1.19q-.83-.29-1.67-.67a6.13,6.13,0,0,1-1.49-1A4.56,4.56,0,0,1,1,13.09a4.37,4.37,0,0,1-.42-2A4.94,4.94,0,0,1,1.07,9a4.53,4.53,0,0,1,1.25-1.6,5.72,5.72,0,0,1,2-1A8.8,8.8,0,0,1,6.87,6a10.38,10.38,0,0,1,5,1.18l-1.1,3a10.44,10.44,0,0,0-1.58-.65,6.85,6.85,0,0,0-2.09-.28,3.84,3.84,0,0,0-2,.38,1.28,1.28,0,0,0-.6,1.16,1.34,1.34,0,0,0,.22.78,2.14,2.14,0,0,0,.62.58,5.46,5.46,0,0,0,.93.47l1.16.43q1.32.49,2.3,1a6.16,6.16,0,0,1,1.63,1.11,4,4,0,0,1,1,1.49,6,6,0,0,1,.32,2.08A4.42,4.42,0,0,1,11,22.4a8,8,0,0,1-5,1.31,13.92,13.92,0,0,1-2-.13,13.16,13.16,0,0,1-1.6-.33,9.21,9.21,0,0,1-1.2-.42,9,9,0,0,1-.85-.42l1.08-3a9.57,9.57,0,0,0,1.87.75A9.72,9.72,0,0,0,6,20.46Z"/><path class="cls-1" d="M26,10.49q-1.1,3.72-2.31,7T21,23.79a14.36,14.36,0,0,1-1,1.87,5.78,5.78,0,0,1-1.13,1.27,4,4,0,0,1-1.39.73,6.28,6.28,0,0,1-1.8.23,7.38,7.38,0,0,1-1.58-.16,7.08,7.08,0,0,1-1.19-.36l.64-2.92a6.25,6.25,0,0,0,1,.27,5.66,5.66,0,0,0,.93.07A2,2,0,0,0,17,24.29a4.23,4.23,0,0,0,.89-1.46q-1.25-2.45-2.5-5.5A68.57,68.57,0,0,1,13,10.49h3.87q.25,1,.58,2.07t.7,2.25q.37,1.14.75,2.22t.73,2q.32-.88.66-2T21,14.81q.33-1.14.64-2.25t.55-2.07Z"/><path class="cls-1" d="M31.09,20.75a3.64,3.64,0,0,0,1.42-.2.76.76,0,0,0,.42-.76.93.93,0,0,0-.54-.77,10.28,10.28,0,0,0-1.64-.75,16.55,16.55,0,0,1-1.56-.66A4.58,4.58,0,0,1,28,16.79a3.31,3.31,0,0,1-.76-1.14A4.2,4.2,0,0,1,27,14.06a3.44,3.44,0,0,1,1.35-2.87A5.86,5.86,0,0,1,32,10.14a11.89,11.89,0,0,1,2.25.21A10.54,10.54,0,0,1,36,10.8l-.64,2.84A13.56,13.56,0,0,0,34,13.25a7.53,7.53,0,0,0-1.68-.17q-1.71,0-1.71,1a1,1,0,0,0,.07.39.83.83,0,0,0,.29.33,4.12,4.12,0,0,0,.6.34q.38.19,1,.41a15,15,0,0,1,2,.88,4.75,4.75,0,0,1,1.24.93,2.89,2.89,0,0,1,.64,1.11,4.93,4.93,0,0,1,.18,1.42,3.27,3.27,0,0,1-1.43,2.88,7.15,7.15,0,0,1-4.06,1,11.65,11.65,0,0,1-2.85-.29,11.5,11.5,0,0,1-1.58-.49l.61-3a12,12,0,0,0,1.91.58,9.29,9.29,0,0,0,1.94.21Z"/><path class="cls-1" d="M41.88,16.83a4.47,4.47,0,0,0,.76,2.72,2.62,2.62,0,0,0,2.25,1q.49,0,.91,0t.69-.09V13.82a3.17,3.17,0,0,0-.89-.37,4.31,4.31,0,0,0-1.11-.15q-2.6,0-2.6,3.53ZM50.14,23q-.49.15-1.13.28t-1.34.23q-.7.1-1.42.16t-1.38.06A8.1,8.1,0,0,1,42,23.22a5.71,5.71,0,0,1-2.11-1.33,5.79,5.79,0,0,1-1.31-2.11A8,8,0,0,1,38.16,17a9.53,9.53,0,0,1,.39-2.83A6.16,6.16,0,0,1,39.68,12a4.83,4.83,0,0,1,1.8-1.35,6,6,0,0,1,2.44-.47,5.74,5.74,0,0,1,1.36.15,7.38,7.38,0,0,1,1.21.42V4.95l3.65-.59V23Z"/><path class="cls-1" d="M56.8,23.37H53.15V10.49H56.8V23.37Zm.34-16.61a2,2,0,0,1-.65,1.58,2.32,2.32,0,0,1-3.06,0,2,2,0,0,1-.65-1.58,2,2,0,0,1,.65-1.58,2.32,2.32,0,0,1,3.06,0,2,2,0,0,1,.65,1.58Z"/><path class="cls-1" d="M62.8,16.51q0,3.06,2.47,3.06a3.65,3.65,0,0,0,1.05-.15,4,4,0,0,0,.83-.34V13.25l-.64-.09q-.37,0-.86,0a2.51,2.51,0,0,0-2.16,1,4,4,0,0,0-.71,2.43Zm8,5.24a6.21,6.21,0,0,1-1.6,4.69,7,7,0,0,1-5,1.53,13.49,13.49,0,0,1-2.35-.21,14.63,14.63,0,0,1-2.18-.55l.64-3.06a10.75,10.75,0,0,0,1.8.54,10.61,10.61,0,0,0,2.14.2,3,3,0,0,0,2.22-.69,2.46,2.46,0,0,0,.65-1.76V22a5.85,5.85,0,0,1-1.21.4,6.45,6.45,0,0,1-1.36.13,5.22,5.22,0,0,1-4.09-1.58,6.38,6.38,0,0,1-1.42-4.42,7.24,7.24,0,0,1,.44-2.58,5.5,5.5,0,0,1,1.29-2,5.75,5.75,0,0,1,2.07-1.29,7.94,7.94,0,0,1,2.77-.45q.66,0,1.36.06t1.38.16q.69.1,1.31.23t1.11.28V21.75Z"/><polygon class="cls-1" points="80.73 23.37 80.73 7.03 91.1 7.03 91.1 8.3 82.13 8.3 82.13 14.36 90.92 14.36 90.92 15.63 82.13 15.63 82.13 23.37 80.73 23.37 80.73 23.37"/><path class="cls-1" d="M101.48,21v-2.6a4.37,4.37,0,0,0-3.58-1.64,2.94,2.94,0,1,0,0,5.86A4.42,4.42,0,0,0,101.48,21Zm0,2.33V22a5.15,5.15,0,0,1-4,1.69,4,4,0,0,1-4.14-3.94,3.91,3.91,0,0,1,4.14-3.92,5.12,5.12,0,0,1,4,1.69v-2.4c0-1.76-1.42-2.72-3.16-2.72a4.62,4.62,0,0,0-3.72,1.74l-.71-.88a5.75,5.75,0,0,1,4.56-2c2.4,0,4.31,1.15,4.31,3.8v8.33Z"/><polygon class="cls-1" points="106.72 23.37 106.72 7.03 108 7.03 108 23.37 106.72 23.37 106.72 23.37"/><path class="cls-1" d="M111.3,17.44c0-3.45,2.25-6.2,5.73-6.2a4.88,4.88,0,0,1,4.19,2l-.88.78a3.74,3.74,0,0,0-3.23-1.64c-2.77,0-4.46,2.2-4.46,5s1.69,5.07,4.46,5.07a3.77,3.77,0,0,0,3.23-1.67l.88.78a4.84,4.84,0,0,1-4.19,2c-3.48,0-5.73-2.77-5.73-6.22Z"/><path class="cls-1" d="M133.4,17.44c0-2.62-1.54-5-4.34-5s-4.31,2.43-4.31,5,1.57,5.07,4.31,5.07,4.34-2.43,4.34-5.07Zm-10,0c0-3.45,2.21-6.2,5.66-6.2s5.71,2.74,5.71,6.2-2.2,6.22-5.71,6.22-5.66-2.77-5.66-6.22Z"/></svg>